<?xml version="1.0" encoding="utf-8"?>
<!-- Generator: Adobe Illustrator 23.0.1, SVG Export Plug-In . SVG Version: 6.00 Build 0)  -->
<svg version="1.1" id="Layer_1" xmlns="http://www.w3.org/2000/svg" xmlns:xlink="http://www.w3.org/1999/xlink" x="0px" y="0px"
	 viewBox="0 0 1000 1000" style="enable-background:new 0 0 1000 1000;" xml:space="preserve">
<style type="text/css">
	.st0{fill:#010101;}
</style>
<path class="st0" d="M779.1,845.5c-124.2,37.9-241.3,20.3-305.2,3.5c-1.7,26-4.6,36.8-8.8,41c-4.9,5.6-45.6,28.8-68.1-4.2
	c-9.8-15.8-14.7-44.2-17.5-70.2C235.7,750.4,169.1,654.3,167,650.8c-3.5-3.5-36.1-37.5-3.5-79.6C194,533.3,295,495.1,385.5,480
	c3.5-77.2,11.9-136.8,22.8-163.1c13-31.6,29.6-3.5,44.2,17.5c11.9,15.8,19.3,83.5,20,137.5c58.9-2.8,94.7,1.6,160.3,14
	c86.3,14.7,143.8,58.9,139.3,108.7c-4.2,49.1-49.1,69.5-66.6,70.9c-17.5,1.4-45.6-11.6-45.6-11.6c-19.7-9.1-1.7-17.5,21.1-27.4
	c25.3-12.3,19.7-24.6,19.7-24.6c-9.1-28.1-121-46.8-232.2-46.8c0,61.4,2.4,163.1,4.2,222.4c77.9,14.7,136.1,11.6,136.1,11.6
	s284.1-8.1,292.2-189.4c8.9-181.6-284.1-355.5-499.9-410.3c-215.4-56.5-337.5-16.5-347.8-11.2c-11.6,5.6-1,7.7-1,7.7
	s11.6,1.7,32.8,8.8s4.2,17.5,4.2,17.5c-36.8,12.5-77.9,5.3-85.8-11.6c-8.1-16.5,5.3-31.6,21.1-53.7C39.1,124.3,55.9,125,55.9,125
	c266.4-93,591.9,73.6,591.9,73.6c304.5,153.6,356.4,334.3,351,404.5c-4.9,69.1-31.6,185.9-219.2,242.7 M193.3,594.7
	c-30.2,14-9.1,36.5-9.1,36.5C241,692,310.4,730.1,377.1,754c7.7-105.2,7-142.8,7-195.8C281,565.2,221.4,582.1,193.3,594.7"/>
</svg>
